<svg xmlns="http://www.w3.org/2000/svg" viewBox="0 0 252.414 252.414" width="512" height="512"><path d="M181.658 38.723a59.52 59.52 0 0 0-3.582.108C168.28 15.688 144.777 0 118.855 0 83.521 0 54.773 28.178 54.773 62.813l.001.365c-23.7 1.782-42.432 21.276-42.432 44.982 0 24.875 20.625 45.113 45.977 45.113h123.34c32.209 0 58.414-25.694 58.414-57.275-.001-31.581-26.205-57.275-58.415-57.275zm0 99.55H58.318c-17.081 0-30.976-13.509-30.976-30.113 0-16.605 13.896-30.115 30.976-30.115 1.054 0 2.226.08 3.687.25a7.498 7.498 0 0 0 8.292-8.532 48.385 48.385 0 0 1-.523-6.951C69.773 36.449 91.792 15 118.855 15c21.54 0 40.879 14.036 47.027 34.132a7.494 7.494 0 0 0 8.412 5.202 44.629 44.629 0 0 1 7.363-.611c23.938 0 43.414 18.965 43.414 42.275.001 23.311-19.474 42.275-43.413 42.275zm-59.185 82.883a5 5 0 0 0-6.83-1.83l-6.218 3.59v-7.178a5 5 0 0 0-10 0v7.177l-6.217-3.589a5 5 0 1 0-5 8.66l6.217 3.589-6.217 3.589a4.999 4.999 0 0 0 2.505 9.331c.848 0 1.708-.216 2.495-.671l6.217-3.589v7.178a5 5 0 0 0 10 0v-7.179l6.218 3.59a4.999 4.999 0 0 0 6.83-1.83 4.999 4.999 0 0 0-1.83-6.83l-6.217-3.589 6.217-3.589a5 5 0 0 0 1.83-6.83zm44.336 0a5 5 0 0 0-6.83-1.83l-6.218 3.59v-7.178a5 5 0 0 0-10 0v7.177l-6.217-3.589a5 5 0 1 0-5 8.66l6.217 3.589-6.217 3.589a4.999 4.999 0 0 0 2.505 9.331c.848 0 1.707-.216 2.495-.671l6.217-3.589v7.178a5 5 0 0 0 10 0v-7.179l6.218 3.59a4.999 4.999 0 0 0 6.83-1.83 4.999 4.999 0 0 0-1.83-6.83l-6.217-3.589 6.217-3.589a4.999 4.999 0 0 0 1.83-6.83zm-79.553-24.937v-7.179l6.218 3.59a4.999 4.999 0 0 0 6.83-1.83 4.999 4.999 0 0 0-1.83-6.83l-6.217-3.589 6.217-3.589a5 5 0 1 0-5-8.66l-6.218 3.59v-7.178a5 5 0 0 0-10 0v7.177l-6.216-3.589a5 5 0 0 0-5 8.66l6.217 3.589-6.217 3.589a5 5 0 0 0 2.505 9.331c.848 0 1.708-.216 2.495-.671l6.216-3.589v7.178a5 5 0 0 0 10 0zm44.338 0v-7.178l6.217 3.589a4.999 4.999 0 0 0 6.83-1.83 4.999 4.999 0 0 0-1.83-6.83l-6.217-3.589 6.217-3.589a5 5 0 0 0-5-8.66l-6.217 3.589v-7.177a5 5 0 0 0-10 0v7.177l-6.217-3.589a5 5 0 0 0-5 8.66l6.217 3.589-6.217 3.589a5 5 0 0 0 2.505 9.331c.848 0 1.708-.216 2.495-.671l6.217-3.589v7.178a5 5 0 0 0 10 0zm57.383-26.258a5 5 0 0 0-6.83-1.83l-6.218 3.59v-7.178a5 5 0 0 0-10 0v7.176l-6.215-3.588a5 5 0 0 0-5 8.66l6.217 3.589-6.217 3.589a5 5 0 0 0 2.505 9.331c.848 0 1.708-.216 2.495-.671l6.215-3.588v7.177a5 5 0 0 0 10 0v-7.179l6.218 3.59a4.999 4.999 0 0 0 6.83-1.83 4.999 4.999 0 0 0-1.83-6.83l-6.217-3.589 6.217-3.589a4.999 4.999 0 0 0 1.83-6.83z" fill="#FFF"/></svg>