<svg xmlns="http://www.w3.org/2000/svg" viewBox="0 0 190.391 190.391" width="512" height="512"><path d="M171.354 70.433a7.5 7.5 0 0 0-6.794-4.324h-49.832l31.245-54.899A7.5 7.5 0 0 0 139.454 0h-51.43a7.5 7.5 0 0 0-6.518 3.79L19.313 113.07a7.499 7.499 0 0 0 6.518 11.209h53.687l-13.597 56.867A7.499 7.499 0 0 0 78.97 187.7l91.344-109.281a7.5 7.5 0 0 0 1.04-7.986zm-83.421 83.156l8.384-35.065a7.501 7.501 0 0 0-7.295-9.244H38.729L92.386 15h34.17L95.311 69.899a7.5 7.5 0 0 0 6.518 11.21h46.687l-60.583 72.48z" fill="#FFF"/></svg>