<svg xmlns="http://www.w3.org/2000/svg" viewBox="0 0 227.73 227.73" width="512" height="512"><path d="M169.317 50.195c-1.193 0-2.39.036-3.583.108-9.795-23.143-33.298-38.831-59.221-38.831-35.335 0-64.082 28.178-64.082 62.813l.001.365C18.73 76.43 0 95.925 0 119.632c0 24.875 20.625 45.113 45.976 45.113h123.342c32.209 0 58.413-25.694 58.413-57.275-.001-31.581-26.205-57.275-58.414-57.275zm0 99.551H45.976c-17.08 0-30.976-13.509-30.976-30.113 0-16.605 13.896-30.115 30.976-30.115 1.054 0 2.225.08 3.688.25a7.502 7.502 0 0 0 8.292-8.529 48.452 48.452 0 0 1-.523-6.954c0-26.364 22.019-47.813 49.082-47.813 21.541 0 40.879 14.035 47.026 34.131a7.505 7.505 0 0 0 8.412 5.203 44.635 44.635 0 0 1 7.365-.611c23.938 0 43.413 18.965 43.413 42.275-.001 23.311-19.475 42.276-43.414 42.276zm-81.742 35.255a4.998 4.998 0 0 0-6.83-1.83l-6.218 3.59v-7.178a5 5 0 1 0-10 0v7.177l-6.216-3.589a4.997 4.997 0 0 0-6.83 1.83 4.999 4.999 0 0 0 1.83 6.83l6.217 3.589-6.217 3.589a4.999 4.999 0 0 0 2.505 9.331c.848 0 1.708-.216 2.495-.671l6.216-3.589v7.178a5 5 0 1 0 10 0v-7.179l6.218 3.59a4.997 4.997 0 0 0 6.83-1.83 4.999 4.999 0 0 0-1.83-6.83l-6.217-3.589 6.217-3.589a5 5 0 0 0 1.83-6.83zm44.337 0a4.998 4.998 0 0 0-6.83-1.83l-6.217 3.589v-7.177a5 5 0 1 0-10 0v7.177l-6.217-3.589a4.997 4.997 0 0 0-6.83 1.83 4.999 4.999 0 0 0 1.83 6.83l6.217 3.589-6.217 3.589a4.999 4.999 0 0 0 2.505 9.331c.848 0 1.708-.216 2.495-.671l6.217-3.589v7.178a5 5 0 1 0 10 0v-7.178l6.217 3.589a4.997 4.997 0 0 0 6.83-1.83 4.999 4.999 0 0 0-1.83-6.83l-6.217-3.589 6.217-3.589a5 5 0 0 0 1.83-6.83zm44.337 0a4.998 4.998 0 0 0-6.83-1.83l-6.218 3.59v-7.178a5 5 0 1 0-10 0v7.177l-6.216-3.589a5 5 0 0 0-5 8.66l6.217 3.589-6.217 3.589a4.999 4.999 0 0 0 2.505 9.331c.848 0 1.708-.216 2.495-.671l6.216-3.589v7.178a5 5 0 1 0 10 0v-7.179l6.218 3.59a4.997 4.997 0 0 0 6.83-1.83 4.999 4.999 0 0 0-1.83-6.83l-6.217-3.589 6.217-3.589a5 5 0 0 0 1.83-6.83z" fill="#FFF"/></svg>