<svg xmlns="http://www.w3.org/2000/svg" viewBox="0 0 227.73 227.73" width="512" height="512"><path d="M169.316 53.114a59.52 59.52 0 0 0-3.582.108c-9.796-23.143-33.3-38.831-59.221-38.831-35.335 0-64.082 28.178-64.082 62.813l.001.365C18.732 79.352 0 98.846 0 122.552c0 24.876 20.625 45.113 45.977 45.113h123.34c32.209 0 58.414-25.693 58.414-57.275s-26.205-57.276-58.415-57.276zm0 99.551H45.977C28.896 152.665 15 139.156 15 122.552c0-16.605 13.896-30.115 30.977-30.115 1.054 0 2.226.079 3.687.25a7.501 7.501 0 0 0 8.291-8.532 48.406 48.406 0 0 1-.523-6.951c0-26.364 22.018-47.813 49.082-47.813 21.54 0 40.879 14.035 47.027 34.132a7.495 7.495 0 0 0 8.412 5.202 44.737 44.737 0 0 1 7.363-.611c23.938 0 43.414 18.965 43.414 42.275 0 23.311-19.475 42.276-43.414 42.276zM47.55 179.049l-21.486 21.486a7.5 7.5 0 0 0 10.606 10.607l21.486-21.486a7.5 7.5 0 0 0-10.606-10.607zm45.836.001l-21.484 21.486a7.5 7.5 0 0 0 5.304 12.802 7.478 7.478 0 0 0 5.304-2.197l21.484-21.486a7.5 7.5 0 0 0-10.608-10.605zm45.836 0l-21.484 21.486a7.5 7.5 0 0 0 5.304 12.802 7.478 7.478 0 0 0 5.304-2.197l21.484-21.486a7.5 7.5 0 0 0-10.608-10.605zm45.838-.001l-21.486 21.486a7.5 7.5 0 0 0 10.606 10.607l21.486-21.486a7.5 7.5 0 0 0-10.606-10.607z" fill="#FFF"/></svg>