<svg xmlns="http://www.w3.org/2000/svg" viewBox="0 0 227.73 227.73" width="512" height="512"><g fill="#FFF"><circle cx="183.082" cy="202.09" r="10.499"/><circle cx="137.27" cy="202.09" r="10.499"/><circle cx="91.139" cy="202.09" r="10.499"/><circle cx="45.328" cy="202.09" r="10.499"/><path d="M169.316 53.864c-1.193 0-2.389.036-3.581.108-9.797-23.143-33.301-38.83-59.222-38.83-35.335 0-64.082 28.178-64.082 62.813l.001.365C18.731 80.102 0 99.596 0 123.302c0 24.876 20.625 45.113 45.977 45.113h123.34c32.21 0 58.414-25.694 58.414-57.275-.001-31.582-26.205-57.276-58.415-57.276zm0 99.551H45.977c-17.08 0-30.977-13.509-30.977-30.113 0-16.605 13.896-30.115 30.977-30.115 1.054 0 2.226.08 3.687.25a7.501 7.501 0 0 0 8.292-8.532 48.242 48.242 0 0 1-.523-6.951c0-26.364 22.019-47.813 49.082-47.813 21.54 0 40.878 14.036 47.027 34.132a7.502 7.502 0 0 0 8.412 5.202 44.638 44.638 0 0 1 7.363-.611c23.938 0 43.414 18.965 43.414 42.275-.001 23.311-19.476 42.276-43.415 42.276z"/></g></svg>