<svg xmlns="http://www.w3.org/2000/svg" viewBox="0 0 274.934 274.934" width="512" height="512"><path d="M109.906 204.389a7.5 7.5 0 0 0-7.5 7.5v21.325a7.5 7.5 0 0 0 15 0v-21.325a7.5 7.5 0 0 0-7.5-7.5zm0-147.131a7.5 7.5 0 0 0 7.5-7.5V28.433a7.5 7.5 0 0 0-15 0v21.325a7.5 7.5 0 0 0 7.5 7.5zM47.275 78.801a7.479 7.479 0 0 0 5.303 2.196 7.5 7.5 0 0 0 5.303-12.804L42.799 53.116a7.5 7.5 0 0 0-10.605 10.608l15.081 15.077zm136.188 52.024a7.5 7.5 0 0 0 7.5 7.5h21.324a7.5 7.5 0 0 0 7.5-7.5 7.5 7.5 0 0 0-7.5-7.5h-21.324a7.5 7.5 0 0 0-7.5 7.5zm-147.129 0a7.5 7.5 0 0 0-7.5-7.5H7.5a7.5 7.5 0 0 0-7.5 7.5 7.5 7.5 0 0 0 7.5 7.5h21.334a7.5 7.5 0 0 0 7.5-7.5zm130.883-49.828a7.478 7.478 0 0 0 5.304-2.197l15.076-15.076a7.5 7.5 0 0 0-10.607-10.606l-15.076 15.076a7.5 7.5 0 0 0 5.303 12.803zM47.267 182.84l-15.074 15.076a7.498 7.498 0 0 0 5.304 12.802 7.478 7.478 0 0 0 5.304-2.197l15.074-15.076a7.498 7.498 0 0 0-.001-10.606 7.501 7.501 0 0 0-10.607.001zm121.003-52.015c0-32.189-26.186-58.377-58.373-58.377-32.189 0-58.377 26.188-58.377 58.377 0 32.188 26.188 58.375 58.377 58.375 32.187 0 58.373-26.187 58.373-58.375zm-101.75 0c0-23.918 19.459-43.377 43.377-43.377 23.916 0 43.373 19.459 43.373 43.377 0 23.917-19.457 43.375-43.373 43.375-23.918 0-43.377-19.458-43.377-43.375zm173.071 53.422c-6.395-12.787-19.896-21.297-34.702-21.297-20.344 0-37.064 15.526-38.517 35.144-13.319 2.421-23.439 13.93-23.439 27.72 0 15.542 12.856 28.188 28.66 28.188h67.838c19.576 0 35.502-15.646 35.502-34.877.001-19.18-15.839-34.792-35.342-34.878zm-.159 54.754h-67.838c-7.532 0-13.66-5.916-13.66-13.188s6.128-13.189 13.66-13.189c.441 0 .964.037 1.644.115a7.5 7.5 0 0 0 8.285-8.525 23.416 23.416 0 0 1-.253-3.344c0-12.639 10.596-22.921 23.619-22.921 10.378 0 19.686 6.738 22.639 16.386a7.5 7.5 0 0 0 8.422 5.2 20.978 20.978 0 0 1 3.482-.29c11.305 0 20.502 8.917 20.502 19.877 0 10.961-9.198 19.879-20.502 19.879z" fill="#FFF"/></svg>