<svg xmlns="http://www.w3.org/2000/svg" viewBox="0 0 341.078 341.078" width="512" height="512"><path d="M176.049 249.605a7.5 7.5 0 0 0-7.5 7.5v21.325a7.5 7.5 0 0 0 7.5 7.5 7.5 7.5 0 0 0 7.5-7.5v-21.325a7.5 7.5 0 0 0-7.5-7.5zm0-147.13a7.5 7.5 0 0 0 7.5-7.5V73.649a7.5 7.5 0 0 0-7.5-7.5 7.5 7.5 0 0 0-7.5 7.5v21.325a7.5 7.5 0 0 0 7.5 7.501zm73.556 73.566a7.5 7.5 0 0 0 7.5 7.5h21.324a7.5 7.5 0 0 0 7.5-7.5 7.5 7.5 0 0 0-7.5-7.5h-21.324a7.5 7.5 0 0 0-7.5 7.5zm-147.128 0a7.5 7.5 0 0 0-7.5-7.5H73.643a7.5 7.5 0 0 0-7.5 7.5 7.5 7.5 0 0 0 7.5 7.5h21.334a7.5 7.5 0 0 0 7.5-7.5zm130.882-49.829a7.478 7.478 0 0 0 5.304-2.197l15.076-15.076a7.5 7.5 0 0 0-10.607-10.606l-15.076 15.076a7.5 7.5 0 0 0 5.303 12.803zm-119.95 101.844l-15.074 15.076a7.498 7.498 0 0 0 5.304 12.802 7.478 7.478 0 0 0 5.304-2.197l15.074-15.076a7.498 7.498 0 0 0-.001-10.606 7.5 7.5 0 0 0-10.607.001zm121.005-52.015c0-32.189-26.186-58.377-58.373-58.377-32.191 0-58.379 26.188-58.379 58.377 0 32.188 26.188 58.375 58.379 58.375 32.187 0 58.373-26.187 58.373-58.375zm-101.752 0c0-23.918 19.46-43.377 43.379-43.377 23.916 0 43.373 19.459 43.373 43.377 0 23.917-19.457 43.375-43.373 43.375-23.919 0-43.379-19.458-43.379-43.375zm173.073 53.422c-6.395-12.787-19.896-21.297-34.702-21.297-20.344 0-37.063 15.526-38.517 35.143-13.319 2.421-23.438 13.93-23.438 27.72 0 15.542 12.856 28.188 28.66 28.188h67.838c19.576 0 35.502-15.646 35.502-34.877 0-19.179-15.84-34.792-35.343-34.877zm-.159 54.753h-67.838c-7.532 0-13.66-5.916-13.66-13.188s6.128-13.188 13.66-13.188c.441 0 .964.037 1.644.115a7.499 7.499 0 0 0 8.283-8.535 23.27 23.27 0 0 1-.251-3.334c0-12.639 10.596-22.921 23.619-22.921 10.378 0 19.687 6.738 22.639 16.386a7.5 7.5 0 0 0 8.422 5.201 20.978 20.978 0 0 1 3.482-.29c11.305 0 20.502 8.917 20.502 19.877 0 10.961-9.197 19.877-20.502 19.877zM132 98.037c0-19.179-15.839-34.792-35.342-34.877-6.396-12.787-19.896-21.297-34.703-21.297-20.344 0-37.063 15.526-38.517 35.144C10.119 79.426 0 90.935 0 104.725c0 15.543 12.856 28.188 28.66 28.188h67.836c19.577 0 35.504-15.646 35.504-34.876zm-117 6.688c0-7.272 6.128-13.188 13.66-13.188.442 0 .962.037 1.635.115a7.502 7.502 0 0 0 8.292-8.533 23.298 23.298 0 0 1-.251-3.336c0-12.639 10.596-22.921 23.619-22.921 10.378 0 19.687 6.738 22.639 16.385a7.504 7.504 0 0 0 8.412 5.202 21.218 21.218 0 0 1 3.49-.29c11.306 0 20.504 8.917 20.504 19.878 0 10.959-9.198 19.876-20.504 19.876H28.66c-7.532 0-13.66-5.916-13.66-13.188z" fill="#FFF"/></svg>