<svg xmlns="http://www.w3.org/2000/svg" viewBox="0 0 190.391 190.391" width="512" height="512"><path d="M178.203 113.471c0-21.885-34.001-71.735-37.878-77.348a7.5 7.5 0 0 0-12.343.001c-1.309 1.896-6.056 8.843-11.768 18.052-15.37-26.953-31.71-50.669-31.896-50.939a7.503 7.503 0 0 0-12.343.001c-6.12 8.861-59.788 87.547-59.788 121.197 0 36.368 29.589 65.955 65.959 65.955 23.491 0 45.391-12.771 57.101-32.914 23.785-.583 42.956-20.091 42.956-44.005zm-100.056 61.92c-28.099 0-50.959-22.858-50.959-50.955 0-21.806 32.533-75.605 50.942-103.49 6.985 10.608 18.768 29.062 29.245 48.145-8.899 15.801-17.258 33.528-17.258 44.38 0 18.974 12.063 35.183 28.923 41.362-9.524 12.718-24.719 20.558-40.893 20.558zm56.007-32.886c-16.011 0-29.037-13.025-29.037-29.034 0-7.837 7.869-24.102 17.101-40.102.168-.252.316-.515.452-.784a449.143 449.143 0 0 1 11.486-18.701c13.122 20.228 29.047 48.429 29.047 59.587 0 16.009-13.031 29.034-29.049 29.034z" fill="#FFF"/></svg>