<svg xmlns="http://www.w3.org/2000/svg" viewBox="0 0 180.146 180.146" width="512" height="512"><path d="M116.707 104.542V26.631C116.707 11.946 104.758 0 90.07 0 75.386 0 63.438 11.946 63.438 26.631v77.911c-10.013 8.046-15.879 20.135-15.879 33.091 0 23.442 19.07 42.514 42.511 42.514 23.443 0 42.517-19.071 42.517-42.514 0-12.956-5.867-25.045-15.88-33.091zM90.07 165.146c-15.17 0-27.511-12.343-27.511-27.514 0-9.281 4.669-17.883 12.489-23.007a7.503 7.503 0 0 0 3.39-6.273V26.631C78.438 20.218 83.656 15 90.07 15c6.417 0 11.637 5.218 11.637 11.631v81.722a7.496 7.496 0 0 0 3.39 6.273c7.821 5.124 12.49 13.725 12.49 23.007 0 15.171-12.344 27.513-27.517 27.513z" fill="#FFF"/></svg>