<svg xmlns="http://www.w3.org/2000/svg" viewBox="0 0 226.705 226.705" width="512" height="512"><path d="M174.178 78.362c-23.999 0-43.523 19.523-43.523 43.521 0 20.026 16.291 36.318 36.316 36.318a7.5 7.5 0 0 0 7.5-7.5 7.5 7.5 0 0 0-7.5-7.5c-11.754 0-21.316-9.564-21.316-21.318 0-15.726 12.796-28.521 28.523-28.521 20.692 0 37.527 16.834 37.527 37.525 0 26.901-21.885 48.787-48.785 48.787H7.5a7.5 7.5 0 0 0-7.5 7.5 7.5 7.5 0 0 0 7.5 7.5h155.42c35.171 0 63.785-28.615 63.785-63.787 0-28.962-23.563-52.525-52.527-52.525zM7.5 110.35h69.889c23.533 0 42.68-19.146 42.68-42.68 0-19.652-15.989-35.641-35.643-35.641-16.55 0-30.014 13.464-30.014 30.014 0 14.066 11.443 25.51 25.51 25.51a7.5 7.5 0 0 0 7.5-7.5 7.5 7.5 0 0 0-7.5-7.5c-5.795 0-10.51-4.715-10.51-10.51 0-8.279 6.735-15.014 15.014-15.014 11.383 0 20.643 9.259 20.643 20.641 0 15.263-12.417 27.68-27.68 27.68H7.5a7.5 7.5 0 0 0-7.5 7.5c0 4.143 3.357 7.5 7.5 7.5z" fill="#FFF"/></svg>